<svg xmlns="http://www.w3.org/2000/svg" xmlns:xlink="http://www.w3.org/1999/xlink" width="156" zoomAndPan="magnify" viewBox="0 0 116.88 116.999995" height="156" preserveAspectRatio="xMidYMid meet" version="1.0"><defs><filter x="0%" y="0%" width="100%" height="100%" id="55e94002ac"><feColorMatrix values="0 0 0 0 1 0 0 0 0 1 0 0 0 0 1 0 0 0 1 0" color-interpolation-filters="sRGB"/></filter><clipPath id="208ca3038a"><path d="M 22.101562 0.0585938 L 94.777344 0.0585938 L 94.777344 116.9375 L 22.101562 116.9375 Z M 22.101562 0.0585938 " clip-rule="nonzero"/></clipPath><mask id="2c68a8a3ce"><g filter="url(#55e94002ac)"><rect x="-11.688" width="140.256" fill="#000000" y="-11.7" height="140.399994" fill-opacity="0.5"/></g></mask><clipPath id="24ff2ab7b7"><path d="M 0.101562 0.0585938 L 72.777344 0.0585938 L 72.777344 116.9375 L 0.101562 116.9375 Z M 0.101562 0.0585938 " clip-rule="nonzero"/></clipPath><clipPath id="7ab3dae9d7"><rect x="0" width="73" y="0" height="117"/></clipPath></defs><g clip-path="url(#208ca3038a)"><g mask="url(#2c68a8a3ce)"><g transform="matrix(1, 0, 0, 1, 22, -0.000000000000009021)"><g clip-path="url(#7ab3dae9d7)"><g clip-path="url(#24ff2ab7b7)"><path fill="#ffffff" d="M 58.242188 7.328125 C 60.171875 7.328125 62.019531 8.09375 63.382812 9.457031 C 64.746094 10.820312 65.511719 12.667969 65.511719 14.59375 L 65.511719 101.804688 C 65.511719 103.734375 64.746094 105.582031 63.382812 106.945312 C 62.019531 108.308594 60.171875 109.074219 58.242188 109.074219 L 14.636719 109.074219 C 12.710938 109.074219 10.863281 108.308594 9.5 106.945312 C 8.136719 105.582031 7.371094 103.734375 7.371094 101.804688 L 7.371094 14.59375 C 7.371094 12.667969 8.136719 10.820312 9.5 9.457031 C 10.863281 8.09375 12.710938 7.328125 14.636719 7.328125 Z M 14.636719 0.0585938 C 10.78125 0.0585938 7.085938 1.589844 4.359375 4.316406 C 1.632812 7.042969 0.101562 10.738281 0.101562 14.59375 L 0.101562 101.804688 C 0.101562 105.660156 1.632812 109.359375 4.359375 112.082031 C 7.085938 114.808594 10.78125 116.339844 14.636719 116.339844 L 58.242188 116.339844 C 62.097656 116.339844 65.792969 114.808594 68.519531 112.082031 C 71.246094 109.359375 72.777344 105.660156 72.777344 101.804688 L 72.777344 14.59375 C 72.777344 10.738281 71.246094 7.042969 68.519531 4.316406 C 65.792969 1.589844 62.097656 0.0585938 58.242188 0.0585938 Z M 14.636719 0.0585938 " fill-opacity="1" fill-rule="nonzero"/></g><path fill="#ffffff" d="M 36.441406 101.804688 C 38.367188 101.804688 40.214844 101.039062 41.578125 99.675781 C 42.941406 98.3125 43.707031 96.464844 43.707031 94.539062 C 43.707031 92.609375 42.941406 90.761719 41.578125 89.398438 C 40.214844 88.035156 38.367188 87.269531 36.441406 87.269531 C 34.511719 87.269531 32.664062 88.035156 31.300781 89.398438 C 29.9375 90.761719 29.171875 92.609375 29.171875 94.539062 C 29.171875 96.464844 29.9375 98.3125 31.300781 99.675781 C 32.664062 101.039062 34.511719 101.804688 36.441406 101.804688 Z M 36.441406 101.804688 " fill-opacity="1" fill-rule="nonzero"/></g></g></g></g></svg>